<svg version="1.1" id="Layer_1" xmlns="http://www.w3.org/2000/svg" xmlns:xlink="http://www.w3.org/1999/xlink" x="0px" y="0px"
	 width="100%" viewBox="0 0 418 424" enable-background="new 0 0 418 424" xml:space="preserve">
<path fill="#FAFAFA" opacity="1.000000" stroke="none" 
	d="
M226.000000,425.000000 
	C150.666672,425.000000 75.833351,425.000000 1.000020,425.000000 
	C1.000013,283.666687 1.000013,142.333389 1.000007,1.000058 
	C140.333298,1.000039 279.666595,1.000039 418.999908,1.000019 
	C418.999939,142.333267 418.999939,283.666534 418.999969,424.999908 
	C354.833344,425.000000 290.666656,425.000000 226.000000,425.000000 
M63.692028,408.168793 
	C64.027588,408.332123 64.363152,408.495453 64.698708,408.658813 
	C64.512558,408.063263 64.326408,407.467682 64.020569,406.165588 
	C60.818817,397.656006 56.886883,389.334839 54.628151,380.581909 
	C52.522781,372.423218 53.688187,364.075043 60.970917,358.324707 
	C63.732433,356.144257 67.335602,354.839508 70.744766,353.705963 
	C80.236122,350.550171 80.316528,350.645691 85.025238,359.241272 
	C89.612076,367.614441 96.203049,373.841400 105.442635,378.896942 
	C105.442635,372.808838 105.442635,367.553467 105.442635,362.298096 
	C105.837570,362.075378 106.232498,361.852661 106.627434,361.629944 
	C115.325623,376.267700 128.112686,384.970642 144.112076,388.885468 
	C141.479706,380.260376 138.887100,371.765594 136.004105,362.319366 
	C144.154495,368.079010 150.728668,373.345154 157.895905,377.616028 
	C165.135590,381.930054 173.298294,384.067719 181.752029,384.988464 
	C177.026962,375.751068 172.485565,366.872772 167.528595,357.182007 
	C177.207169,362.042267 185.260406,366.681274 193.777512,370.196289 
	C202.324493,373.723572 211.520798,374.548401 221.571625,373.957611 
	C213.126999,364.841431 204.821426,356.619568 200.170090,345.310364 
	C217.715179,355.008575 235.779694,356.188660 255.455124,350.674408 
	C245.064453,343.266907 235.114777,336.732147 227.650772,326.991516 
	C244.754288,332.834320 261.531403,332.768555 279.253418,326.603149 
	C269.755432,320.129059 261.015198,314.171478 252.274963,308.213867 
	C252.508682,307.691345 252.742416,307.168823 252.976151,306.646301 
	C275.193329,310.725525 295.797821,307.350952 315.225464,293.871460 
	C306.116486,291.059143 297.912476,288.526276 289.642731,285.973083 
	C300.936829,283.276031 311.856079,281.200531 322.432739,277.994751 
	C333.251007,274.715729 341.877258,267.654999 349.968292,259.324402 
	C337.235016,259.324402 324.987762,259.082153 312.753418,259.375854 
	C288.763855,259.951691 264.750458,261.107910 240.948975,257.023560 
	C233.305481,255.711929 226.323624,255.997070 219.391479,259.886078 
	C216.294113,261.623749 212.498810,262.358368 208.921326,262.945038 
	C202.936707,263.926483 196.872772,264.424255 190.665619,265.146118 
	C196.005356,273.392090 201.128632,281.303802 206.573715,289.712463 
	C192.523666,293.359314 179.840118,290.847107 166.436325,289.736359 
	C170.202179,299.190765 174.248077,307.666443 175.159805,318.118713 
	C164.677399,315.383301 155.171219,312.902679 145.248398,310.313293 
	C146.097946,315.859924 146.836823,320.683899 147.825394,327.138123 
	C138.270157,323.809204 129.831009,320.869110 120.931541,317.768646 
	C120.284393,322.047211 119.658852,326.182953 118.832520,331.646179 
	C111.609474,327.378845 105.320801,323.663544 98.792450,319.806641 
	C97.737328,323.092133 96.803825,325.998901 95.576752,329.819824 
	C90.213638,325.247986 85.445801,321.183563 80.933441,317.336945 
	C74.007523,322.790680 67.073189,328.251007 60.138847,333.711365 
	C59.608875,333.252197 59.078899,332.793060 58.548927,332.333893 
	C59.360161,330.732513 59.753326,328.530518 61.050632,327.627441 
	C69.314651,321.874939 76.908165,315.608002 80.630692,304.642578 
	C82.651802,308.650848 83.833694,311.731842 85.645172,314.382568 
	C87.503578,317.101990 89.977600,319.400726 92.897804,322.689514 
	C94.324577,316.577576 95.435112,311.820343 96.895615,305.563904 
	C101.545967,314.172363 106.441093,320.703583 115.116409,324.356476 
	C115.116409,317.667786 115.116409,311.494812 115.116409,303.672607 
	C123.062737,312.323853 130.874496,318.616150 142.292038,319.871735 
	C140.041580,311.974640 137.966812,304.694061 135.476471,295.955231 
	C145.904709,304.413971 156.530273,309.244934 168.848221,311.348846 
	C166.539261,298.619659 159.952393,288.604248 153.319016,278.284363 
	C167.596695,285.248413 182.235916,288.178009 198.270996,286.517975 
	C192.847580,273.493378 183.216370,265.028259 172.574646,257.432556 
	C211.170288,263.398315 223.403030,254.514282 236.283096,243.237961 
	C222.400589,240.563934 208.906525,237.964722 195.175293,235.319824 
	C206.968872,233.350693 218.548889,232.401245 229.527054,229.312622 
	C240.927689,226.105148 249.864624,218.475296 257.330963,208.224075 
	C238.637741,209.029205 221.013367,209.788315 203.388992,210.547409 
	C203.311203,209.988022 203.233414,209.428635 203.155609,208.869247 
	C209.773544,207.925964 216.365921,206.707947 223.014084,206.089798 
	C244.836136,204.060699 261.918488,194.388947 273.411316,175.462433 
	C274.183411,174.190948 274.691711,172.759308 275.477264,171.069626 
	C249.947327,176.539047 225.208145,181.839050 200.468964,187.139069 
	C202.668213,185.129959 205.081711,183.622894 207.710648,182.907135 
	C219.089401,179.809067 230.429489,176.439606 241.973053,174.105667 
	C260.704895,170.318344 275.669067,161.907761 283.311646,143.462692 
	C284.671051,140.181763 285.476379,136.671265 286.889862,132.136551 
	C283.938293,132.973358 282.223663,133.334061 280.600281,133.939377 
	C266.455139,139.213898 252.490112,145.033844 238.152893,149.715851 
	C218.416748,156.160950 198.183350,161.150467 179.718475,171.051239 
	C163.841919,179.564209 153.550247,192.311844 150.037460,210.198517 
	C149.332367,213.788803 148.517502,217.361984 147.948410,220.973801 
	C144.246124,244.470154 132.373688,262.726166 111.734528,274.400513 
	C101.687256,280.083679 90.557991,283.931030 79.745689,288.168396 
	C57.969559,296.702606 43.684666,311.645081 39.485767,335.022095 
	C38.143993,342.492310 38.189568,350.211670 37.560310,358.334045 
	C29.664326,332.649261 42.412514,301.258514 65.797165,289.521454 
	C76.757042,284.020538 88.363152,279.799164 99.711395,275.082092 
	C113.628082,269.297394 124.797722,260.332855 133.070129,247.602951 
	C140.267776,236.526901 142.641541,223.998489 145.044342,211.411102 
	C148.485458,193.384293 157.041748,178.749756 173.187759,169.210052 
	C181.204300,164.473541 189.446411,160.098557 197.293823,155.100540 
	C210.531097,146.669678 222.072372,136.462067 228.619049,121.730896 
	C231.241928,115.828941 232.836273,109.642578 231.726120,101.904007 
	C228.900742,104.404060 226.865326,106.498917 224.544098,108.204872 
	C217.079895,113.690567 210.032623,120.070374 201.858215,124.185997 
	C189.728607,130.292969 176.655884,134.493652 164.193604,139.980499 
	C144.044968,148.851486 128.563431,162.582962 123.818604,184.912781 
	C121.921242,193.842010 123.225143,203.457642 123.125420,212.761414 
	C122.894226,234.330368 112.722687,249.398880 93.207344,258.194244 
	C84.880249,261.947205 76.378845,265.315491 67.936852,268.810791 
	C58.240467,272.825439 49.680683,278.615845 42.803532,286.455627 
	C24.606764,307.199493 22.567993,331.337463 29.485502,356.788818 
	C35.085232,377.391632 48.262280,393.253906 63.692028,408.168793 
M295.476654,142.976761 
	C285.238983,145.734558 283.472137,156.130859 277.632660,162.989136 
	C279.617523,162.458893 281.602386,161.928650 283.587250,161.398407 
	C283.981140,161.690826 284.375031,161.983246 284.768890,162.275665 
	C280.916534,170.177597 277.064148,178.079514 273.168793,186.069565 
	C273.723175,186.108627 274.229675,186.264709 274.673279,186.158386 
	C304.027039,179.125107 332.926483,170.757858 359.001587,154.967911 
	C386.994904,138.016342 406.304932,114.420570 413.165405,81.790573 
	C414.459259,75.636818 414.964386,69.317230 415.833466,63.074169 
	C414.890869,62.518185 413.948273,61.962200 413.005676,61.406219 
	C412.393219,62.785244 412.067047,64.410103 411.125549,65.506577 
	C396.166565,82.927826 379.373505,98.414299 359.325500,109.669106 
	C338.621368,121.292252 317.249054,131.725128 295.476654,142.976761 
M365.348969,96.849335 
	C398.586884,68.736618 406.353546,24.161390 397.841736,2.211507 
	C396.525269,4.457394 395.407776,6.216912 394.431793,8.051702 
	C385.288635,25.240494 373.919189,40.660007 359.270508,53.649612 
	C339.791260,70.922638 317.397247,83.597168 294.522919,95.589272 
	C293.104706,96.332802 291.647675,97.702461 291.018616,99.136169 
	C287.299988,107.611267 283.823486,116.192543 280.258575,124.735184 
	C279.794647,125.846863 279.290833,126.941872 278.323792,129.139084 
	C283.422516,126.512871 287.425507,124.451027 292.259735,121.961029 
	C291.694366,128.344711 291.229828,133.589905 290.702179,139.547470 
	C292.725616,138.754227 294.248413,138.244125 295.697723,137.574844 
	C304.602936,133.462463 313.598541,129.527267 322.362030,125.130486 
	C337.567413,117.501724 352.119293,108.809807 365.348969,96.849335 
M395.021271,143.527527 
	C379.978912,151.651367 365.337158,160.659592 349.802490,167.696671 
	C325.040558,178.913620 298.666107,185.535919 272.302002,191.925018 
	C265.908478,193.474442 260.620483,196.714569 255.512054,202.089355 
	C260.061340,201.822495 263.677155,201.610413 268.851776,201.306870 
	C261.759033,209.985596 255.342010,217.837494 248.537064,226.164062 
	C250.085770,226.164062 251.174911,226.183029 252.263245,226.161270 
	C275.449768,225.697922 298.418701,223.284134 320.981598,217.832016 
	C345.505035,211.906158 367.883362,202.119202 384.754730,182.239899 
	C395.900879,169.106552 402.631012,154.108032 406.323029,135.695633 
	C401.965851,138.717133 398.790985,140.918762 395.021271,143.527527 
M237.132248,250.511292 
	C237.735977,251.020157 238.281754,251.875519 238.951843,251.987579 
	C259.742279,255.464310 280.685577,255.748703 301.696747,255.132126 
	C322.130524,254.532501 340.653442,248.629654 356.748444,235.891541 
	C366.390503,228.260468 373.322357,218.479965 379.116150,206.045822 
	C373.203796,208.010056 368.445160,209.350708 363.867798,211.151978 
	C339.836639,220.608704 314.863892,225.922806 289.212891,228.182938 
	C273.293610,229.585602 257.334778,230.546005 241.422699,232.018555 
	C237.193512,232.409927 233.071411,233.958557 228.900146,234.975845 
	C228.978271,235.491180 229.056396,236.006500 229.134537,236.521835 
	C234.778610,237.694992 240.422684,238.868149 246.788864,240.191406 
	C243.260147,243.962631 240.434402,246.982559 237.132248,250.511292 
M218.702042,144.203064 
	C216.547150,146.642242 214.392242,149.081421 212.237350,151.520599 
	C212.436111,151.907806 212.634872,152.295029 212.833633,152.682251 
	C226.642975,148.146606 240.536362,143.848572 254.236404,139.003860 
	C266.274200,134.746979 274.474762,125.743217 280.451111,114.907639 
	C285.173248,106.346069 287.375092,96.913933 287.167358,85.599945 
	C284.034119,88.434349 281.904541,90.385353 279.748718,92.306946 
	C267.933258,102.838776 254.360275,110.402031 239.594437,115.894600 
	C236.438263,117.068626 234.825989,119.160683 233.153229,122.118607 
	C228.945068,129.559845 223.898788,136.527115 218.702042,144.203064 
z"/>
<path fill="#781821" opacity="1.000000" stroke="none" 
	d="
M63.349678,407.701691 
	C48.262280,393.253906 35.085232,377.391632 29.485502,356.788818 
	C22.567993,331.337463 24.606764,307.199493 42.803532,286.455627 
	C49.680683,278.615845 58.240467,272.825439 67.936852,268.810791 
	C76.378845,265.315491 84.880249,261.947205 93.207344,258.194244 
	C112.722687,249.398880 122.894226,234.330368 123.125420,212.761414 
	C123.225143,203.457642 121.921242,193.842010 123.818604,184.912781 
	C128.563431,162.582962 144.044968,148.851486 164.193604,139.980499 
	C176.655884,134.493652 189.728607,130.292969 201.858215,124.185997 
	C210.032623,120.070374 217.079895,113.690567 224.544098,108.204872 
	C226.865326,106.498917 228.900742,104.404060 231.726120,101.904007 
	C232.836273,109.642578 231.241928,115.828941 228.619049,121.730896 
	C222.072372,136.462067 210.531097,146.669678 197.293823,155.100540 
	C189.446411,160.098557 181.204300,164.473541 173.187759,169.210052 
	C157.041748,178.749756 148.485458,193.384293 145.044342,211.411102 
	C142.641541,223.998489 140.267776,236.526901 133.070129,247.602951 
	C124.797722,260.332855 113.628082,269.297394 99.711395,275.082092 
	C88.363152,279.799164 76.757042,284.020538 65.797165,289.521454 
	C42.412514,301.258514 29.664326,332.649261 37.560310,358.334045 
	C38.189568,350.211670 38.143993,342.492310 39.485767,335.022095 
	C43.684666,311.645081 57.969559,296.702606 79.745689,288.168396 
	C90.557991,283.931030 101.687256,280.083679 111.734528,274.400513 
	C132.373688,262.726166 144.246124,244.470154 147.948410,220.973801 
	C148.517502,217.361984 149.332367,213.788803 150.037460,210.198517 
	C153.550247,192.311844 163.841919,179.564209 179.718475,171.051239 
	C198.183350,161.150467 218.416748,156.160950 238.152893,149.715851 
	C252.490112,145.033844 266.455139,139.213898 280.600281,133.939377 
	C282.223663,133.334061 283.938293,132.973358 286.889862,132.136551 
	C285.476379,136.671265 284.671051,140.181763 283.311646,143.462692 
	C275.669067,161.907761 260.704895,170.318344 241.973053,174.105667 
	C230.429489,176.439606 219.089401,179.809067 207.710648,182.907135 
	C205.081711,183.622894 202.668213,185.129959 200.468964,187.139069 
	C225.208145,181.839050 249.947327,176.539047 275.477264,171.069626 
	C274.691711,172.759308 274.183411,174.190948 273.411316,175.462433 
	C261.918488,194.388947 244.836136,204.060699 223.014084,206.089798 
	C216.365921,206.707947 209.773544,207.925964 203.155609,208.869247 
	C203.233414,209.428635 203.311203,209.988022 203.388992,210.547409 
	C221.013367,209.788315 238.637741,209.029205 257.330963,208.224075 
	C249.864624,218.475296 240.927689,226.105148 229.527054,229.312622 
	C218.548889,232.401245 206.968872,233.350693 195.175293,235.319824 
	C208.906525,237.964722 222.400589,240.563934 236.283096,243.237961 
	C223.403030,254.514282 211.170288,263.398315 172.574646,257.432556 
	C183.216370,265.028259 192.847580,273.493378 198.270996,286.517975 
	C182.235916,288.178009 167.596695,285.248413 153.319016,278.284363 
	C159.952393,288.604248 166.539261,298.619659 168.848221,311.348846 
	C156.530273,309.244934 145.904709,304.413971 135.476471,295.955231 
	C137.966812,304.694061 140.041580,311.974640 142.292038,319.871735 
	C130.874496,318.616150 123.062737,312.323853 115.116409,303.672607 
	C115.116409,311.494812 115.116409,317.667786 115.116409,324.356476 
	C106.441093,320.703583 101.545967,314.172363 96.895615,305.563904 
	C95.435112,311.820343 94.324577,316.577576 92.897804,322.689514 
	C89.977600,319.400726 87.503578,317.101990 85.645172,314.382568 
	C83.833694,311.731842 82.651802,308.650848 80.630692,304.642578 
	C76.908165,315.608002 69.314651,321.874939 61.050632,327.627441 
	C59.753326,328.530518 59.360161,330.732513 58.548927,332.333893 
	C59.078899,332.793060 59.608875,333.252197 60.138847,333.711365 
	C67.073189,328.251007 74.007523,322.790680 80.933441,317.336945 
	C85.445801,321.183563 90.213638,325.247986 95.576752,329.819824 
	C96.803825,325.998901 97.737328,323.092133 98.792450,319.806641 
	C105.320801,323.663544 111.609474,327.378845 118.832520,331.646179 
	C119.658852,326.182953 120.284393,322.047211 120.931541,317.768646 
	C129.831009,320.869110 138.270157,323.809204 147.825394,327.138123 
	C146.836823,320.683899 146.097946,315.859924 145.248398,310.313293 
	C155.171219,312.902679 164.677399,315.383301 175.159805,318.118713 
	C174.248077,307.666443 170.202179,299.190765 166.436325,289.736359 
	C179.840118,290.847107 192.523666,293.359314 206.573715,289.712463 
	C201.128632,281.303802 196.005356,273.392090 190.665619,265.146118 
	C196.872772,264.424255 202.936707,263.926483 208.921326,262.945038 
	C212.498810,262.358368 216.294113,261.623749 219.391479,259.886078 
	C226.323624,255.997070 233.305481,255.711929 240.948975,257.023560 
	C264.750458,261.107910 288.763855,259.951691 312.753418,259.375854 
	C324.987762,259.082153 337.235016,259.324402 349.968292,259.324402 
	C341.877258,267.654999 333.251007,274.715729 322.432739,277.994751 
	C311.856079,281.200531 300.936829,283.276031 289.642731,285.973083 
	C297.912476,288.526276 306.116486,291.059143 315.225464,293.871460 
	C295.797821,307.350952 275.193329,310.725525 252.976151,306.646301 
	C252.742416,307.168823 252.508682,307.691345 252.274963,308.213867 
	C261.015198,314.171478 269.755432,320.129059 279.253418,326.603149 
	C261.531403,332.768555 244.754288,332.834320 227.650772,326.991516 
	C235.114777,336.732147 245.064453,343.266907 255.455124,350.674408 
	C235.779694,356.188660 217.715179,355.008575 200.170090,345.310364 
	C204.821426,356.619568 213.126999,364.841431 221.571625,373.957611 
	C211.520798,374.548401 202.324493,373.723572 193.777512,370.196289 
	C185.260406,366.681274 177.207169,362.042267 167.528595,357.182007 
	C172.485565,366.872772 177.026962,375.751068 181.752029,384.988464 
	C173.298294,384.067719 165.135590,381.930054 157.895905,377.616028 
	C150.728668,373.345154 144.154495,368.079010 136.004105,362.319366 
	C138.887100,371.765594 141.479706,380.260376 144.112076,388.885468 
	C128.112686,384.970642 115.325623,376.267700 106.627434,361.629944 
	C106.232498,361.852661 105.837570,362.075378 105.442635,362.298096 
	C105.442635,367.553467 105.442635,372.808838 105.442635,378.896942 
	C96.203049,373.841400 89.612076,367.614441 85.025238,359.241272 
	C80.316528,350.645691 80.236122,350.550171 70.744766,353.705963 
	C67.335602,354.839508 63.732433,356.144257 60.970917,358.324707 
	C53.688187,364.075043 52.522781,372.423218 54.628151,380.581909 
	C56.886883,389.334839 60.818817,397.656006 63.875923,406.719727 
	C63.604084,407.416504 63.476883,407.559082 63.349678,407.701691 
z"/>
<path fill="#781821" opacity="1.000000" stroke="none" 
	d="
M295.822845,142.827728 
	C317.249054,131.725128 338.621368,121.292252 359.325500,109.669106 
	C379.373505,98.414299 396.166565,82.927826 411.125549,65.506577 
	C412.067047,64.410103 412.393219,62.785244 413.005676,61.406219 
	C413.948273,61.962200 414.890869,62.518185 415.833466,63.074169 
	C414.964386,69.317230 414.459259,75.636818 413.165405,81.790573 
	C406.304932,114.420570 386.994904,138.016342 359.001587,154.967911 
	C332.926483,170.757858 304.027039,179.125107 274.673279,186.158386 
	C274.229675,186.264709 273.723175,186.108627 273.168793,186.069565 
	C277.064148,178.079514 280.916534,170.177597 284.768890,162.275665 
	C284.375031,161.983246 283.981140,161.690826 283.587250,161.398407 
	C281.602386,161.928650 279.617523,162.458893 277.632660,162.989136 
	C283.472137,156.130859 285.238983,145.734558 295.822845,142.827728 
z"/>
<path fill="#781821" opacity="1.000000" stroke="none" 
	d="
M365.070312,97.069214 
	C352.119293,108.809807 337.567413,117.501724 322.362030,125.130486 
	C313.598541,129.527267 304.602936,133.462463 295.697723,137.574844 
	C294.248413,138.244125 292.725616,138.754227 290.702179,139.547470 
	C291.229828,133.589905 291.694366,128.344711 292.259735,121.961029 
	C287.425507,124.451027 283.422516,126.512871 278.323792,129.139084 
	C279.290833,126.941872 279.794647,125.846863 280.258575,124.735184 
	C283.823486,116.192543 287.299988,107.611267 291.018616,99.136169 
	C291.647675,97.702461 293.104706,96.332802 294.522919,95.589272 
	C317.397247,83.597168 339.791260,70.922638 359.270508,53.649612 
	C373.919189,40.660007 385.288635,25.240494 394.431793,8.051702 
	C395.407776,6.216912 396.525269,4.457394 397.841736,2.211507 
	C406.353546,24.161390 398.586884,68.736618 365.070312,97.069214 
z"/>
<path fill="#781821" opacity="1.000000" stroke="none" 
	d="
M395.318695,143.323944 
	C398.790985,140.918762 401.965851,138.717133 406.323029,135.695633 
	C402.631012,154.108032 395.900879,169.106552 384.754730,182.239899 
	C367.883362,202.119202 345.505035,211.906158 320.981598,217.832016 
	C298.418701,223.284134 275.449768,225.697922 252.263245,226.161270 
	C251.174911,226.183029 250.085770,226.164062 248.537064,226.164062 
	C255.342010,217.837494 261.759033,209.985596 268.851776,201.306870 
	C263.677155,201.610413 260.061340,201.822495 255.512054,202.089355 
	C260.620483,196.714569 265.908478,193.474442 272.302002,191.925018 
	C298.666107,185.535919 325.040558,178.913620 349.802490,167.696671 
	C365.337158,160.659592 379.978912,151.651367 395.318695,143.323944 
z"/>
<path fill="#791922" opacity="1.000000" stroke="none" 
	d="
M237.370453,250.256897 
	C240.434402,246.982559 243.260147,243.962631 246.788864,240.191406 
	C240.422684,238.868149 234.778610,237.694992 229.134537,236.521835 
	C229.056396,236.006500 228.978271,235.491180 228.900146,234.975845 
	C233.071411,233.958557 237.193512,232.409927 241.422699,232.018555 
	C257.334778,230.546005 273.293610,229.585602 289.212891,228.182938 
	C314.863892,225.922806 339.836639,220.608704 363.867798,211.151978 
	C368.445160,209.350708 373.203796,208.010056 379.116150,206.045822 
	C373.322357,218.479965 366.390503,228.260468 356.748444,235.891541 
	C340.653442,248.629654 322.130524,254.532501 301.696747,255.132126 
	C280.685577,255.748703 259.742279,255.464310 238.951843,251.987579 
	C238.281754,251.875519 237.735977,251.020157 237.370453,250.256897 
z"/>
<path fill="#791A23" opacity="1.000000" stroke="none" 
	d="
M218.945282,143.943726 
	C223.898788,136.527115 228.945068,129.559845 233.153229,122.118607 
	C234.825989,119.160683 236.438263,117.068626 239.594437,115.894600 
	C254.360275,110.402031 267.933258,102.838776 279.748718,92.306946 
	C281.904541,90.385353 284.034119,88.434349 287.167358,85.599945 
	C287.375092,96.913933 285.173248,106.346069 280.451111,114.907639 
	C274.474762,125.743217 266.274200,134.746979 254.236404,139.003860 
	C240.536362,143.848572 226.642975,148.146606 212.833633,152.682251 
	C212.634872,152.295029 212.436111,151.907806 212.237350,151.520599 
	C214.392242,149.081421 216.547150,146.642242 218.945282,143.943726 
z"/>
<path fill="#781821" opacity="1.000000" stroke="none" 
	d="
M63.935768,407.072998 
	C64.326408,407.467682 64.512558,408.063263 64.698708,408.658813 
	C64.363152,408.495453 64.027588,408.332123 63.520851,407.935242 
	C63.476883,407.559082 63.604084,407.416504 63.935768,407.072998 
z"/>
</svg>